<svg width="342" height="39" viewBox="0 0 342 39" fill="none" xmlns="http://www.w3.org/2000/svg">
<path d="M15.464 4.01602C21.768 4.01602 26.456 5.45602 29.528 8.33602C32.6 11.184 34.136 15.28 34.136 20.624C34.136 24.112 33.384 27.168 31.88 29.792C30.376 32.384 28.184 34.4 25.304 35.84C22.456 37.28 19.032 38 15.032 38C14.52 38 13.848 37.984 13.016 37.952C12.184 37.92 11.32 37.904 10.424 37.904C9.52796 37.872 8.72796 37.856 8.02396 37.856C6.61596 37.856 5.22396 37.872 3.84796 37.904C2.50396 37.904 1.43196 37.936 0.631958 38V37.04C1.65596 36.976 2.42396 36.848 2.93596 36.656C3.44796 36.464 3.78396 36.08 3.94396 35.504C4.13596 34.928 4.23196 34.064 4.23196 32.912V9.10402C4.23196 7.92002 4.13596 7.05602 3.94396 6.51202C3.78396 5.93602 3.43196 5.55202 2.88796 5.36002C2.37596 5.13602 1.62396 5.00802 0.631958 4.97602V4.01602C1.43196 4.04802 2.50396 4.09602 3.84796 4.16002C5.22396 4.19202 6.58396 4.19202 7.92796 4.16002C9.07996 4.12802 10.376 4.09602 11.816 4.06402C13.288 4.03202 14.504 4.01602 15.464 4.01602ZM15.416 4.88002C13.944 4.88002 12.984 5.15202 12.536 5.69602C12.088 6.24002 11.864 7.34402 11.864 9.00802V33.008C11.864 34.672 12.088 35.776 12.536 36.32C13.016 36.864 13.992 37.136 15.464 37.136C18.152 37.136 20.264 36.512 21.8 35.264C23.368 33.984 24.488 32.128 25.16 29.696C25.832 27.264 26.168 24.304 26.168 20.816C26.168 17.232 25.8 14.272 25.064 11.936C24.36 9.56802 23.224 7.80802 21.656 6.65602C20.088 5.47202 18.008 4.88002 15.416 4.88002Z" fill="#141414"/>
<path d="M43.7135 38.336C42.2735 38.336 41.0735 38.064 40.1135 37.52C39.1535 36.976 38.4495 36.256 38.0015 35.36C37.5535 34.432 37.3295 33.424 37.3295 32.336C37.3295 30.96 37.6335 29.84 38.2415 28.976C38.8815 28.112 39.6975 27.408 40.6895 26.864C41.6815 26.32 42.7215 25.872 43.8095 25.52C44.9295 25.168 45.9855 24.832 46.9775 24.512C48.0015 24.16 48.8175 23.76 49.4255 23.312C50.0655 22.832 50.3855 22.224 50.3855 21.488V17.744C50.3855 16.912 50.2415 16.176 49.9535 15.536C49.6975 14.864 49.2815 14.352 48.7055 14C48.1615 13.648 47.4415 13.472 46.5455 13.472C45.9055 13.472 45.2655 13.568 44.6255 13.76C43.9855 13.92 43.4575 14.208 43.0415 14.624C43.9375 14.944 44.6255 15.44 45.1055 16.112C45.6175 16.752 45.8735 17.488 45.8735 18.32C45.8735 19.408 45.4895 20.272 44.7215 20.912C43.9855 21.552 43.1055 21.872 42.0815 21.872C40.9295 21.872 40.0495 21.52 39.4415 20.816C38.8655 20.08 38.5775 19.2 38.5775 18.176C38.5775 17.248 38.8015 16.48 39.2495 15.872C39.7295 15.264 40.3855 14.688 41.2175 14.144C42.1135 13.632 43.1855 13.232 44.4335 12.944C45.7135 12.656 47.0895 12.512 48.5615 12.512C50.0335 12.512 51.3615 12.672 52.5455 12.992C53.7295 13.28 54.7215 13.824 55.5215 14.624C56.2575 15.36 56.7375 16.272 56.9615 17.36C57.1855 18.416 57.2975 19.76 57.2975 21.392V34.448C57.2975 35.248 57.3775 35.808 57.5375 36.128C57.6975 36.416 57.9695 36.56 58.3535 36.56C58.6415 36.56 58.9135 36.48 59.1695 36.32C59.4575 36.16 59.7615 35.968 60.0815 35.744L60.5615 36.56C59.8895 37.136 59.1055 37.584 58.2095 37.904C57.3455 38.192 56.3695 38.336 55.2815 38.336C54.0975 38.336 53.1535 38.176 52.4495 37.856C51.7455 37.504 51.2335 37.04 50.9135 36.464C50.6255 35.888 50.4815 35.216 50.4815 34.448C49.7135 35.664 48.7855 36.624 47.6975 37.328C46.6095 38 45.2815 38.336 43.7135 38.336ZM47.1215 35.264C47.7615 35.264 48.3375 35.12 48.8495 34.832C49.3935 34.512 49.9055 34 50.3855 33.296V23.456C50.0975 23.936 49.6975 24.368 49.1855 24.752C48.6735 25.136 48.1295 25.536 47.5535 25.952C46.9775 26.336 46.4175 26.768 45.8735 27.248C45.3615 27.728 44.9455 28.32 44.6255 29.024C44.3055 29.728 44.1455 30.576 44.1455 31.568C44.1455 32.816 44.4175 33.744 44.9615 34.352C45.5055 34.96 46.2255 35.264 47.1215 35.264Z" fill="#141414"/>
<path d="M79.7892 12.512C81.1332 12.512 82.2212 12.688 83.0532 13.04C83.9172 13.36 84.5892 13.808 85.0692 14.384C85.5812 14.992 85.9492 15.776 86.1732 16.736C86.4292 17.696 86.5572 18.992 86.5572 20.624V33.536C86.5572 34.88 86.7812 35.792 87.2292 36.272C87.7092 36.752 88.5092 36.992 89.6292 36.992V38C89.0212 37.968 88.1092 37.936 86.8932 37.904C85.6772 37.84 84.4772 37.808 83.2932 37.808C82.0772 37.808 80.8772 37.84 79.6932 37.904C78.5412 37.936 77.6612 37.968 77.0532 38V36.992C78.0132 36.992 78.6852 36.752 79.0692 36.272C79.4532 35.792 79.6452 34.88 79.6452 33.536V18.608C79.6452 17.808 79.5652 17.12 79.4052 16.544C79.2452 15.936 78.9572 15.472 78.5412 15.152C78.1252 14.8 77.5012 14.624 76.6692 14.624C75.8052 14.624 75.0052 14.864 74.2692 15.344C73.5652 15.824 72.9892 16.496 72.5412 17.36C72.1252 18.192 71.9172 19.136 71.9172 20.192V33.536C71.9172 34.88 72.1092 35.792 72.4932 36.272C72.9092 36.752 73.5812 36.992 74.5092 36.992V38C73.9332 37.968 73.0852 37.936 71.9652 37.904C70.8772 37.84 69.7412 37.808 68.5572 37.808C67.3412 37.808 66.0932 37.84 64.8132 37.904C63.5332 37.936 62.5732 37.968 61.9332 38V36.992C63.0532 36.992 63.8372 36.752 64.2852 36.272C64.7652 35.792 65.0052 34.88 65.0052 33.536V18.416C65.0052 16.976 64.7812 15.92 64.3332 15.248C63.9172 14.544 63.1172 14.192 61.9332 14.192V13.184C62.9572 13.28 63.9492 13.328 64.9092 13.328C66.2532 13.328 67.5012 13.28 68.6532 13.184C69.8372 13.056 70.9252 12.88 71.9172 12.656V16.976C72.7172 15.344 73.8052 14.192 75.1812 13.52C76.5572 12.848 78.0932 12.512 79.7892 12.512Z" fill="#141414"/>
<path d="M97.6576 0.800016C99.0016 0.800016 100.058 1.13602 100.826 1.80802C101.626 2.44802 102.026 3.34402 102.026 4.49602C102.026 5.64802 101.626 6.56002 100.826 7.23202C100.058 7.87202 99.0016 8.19202 97.6576 8.19202C96.3136 8.19202 95.2416 7.87202 94.4416 7.23202C93.6736 6.56002 93.2896 5.64802 93.2896 4.49602C93.2896 3.34402 93.6736 2.44802 94.4416 1.80802C95.2416 1.13602 96.3136 0.800016 97.6576 0.800016ZM101.402 12.656V33.536C101.402 34.88 101.626 35.792 102.074 36.272C102.554 36.752 103.354 36.992 104.474 36.992V38C103.898 37.968 103.002 37.936 101.786 37.904C100.57 37.84 99.3376 37.808 98.0896 37.808C96.8416 37.808 95.5776 37.84 94.2976 37.904C93.0176 37.936 92.0576 37.968 91.4176 38V36.992C92.5376 36.992 93.3216 36.752 93.7696 36.272C94.2496 35.792 94.4896 34.88 94.4896 33.536V18.416C94.4896 16.976 94.2656 15.92 93.8176 15.248C93.4016 14.544 92.6016 14.192 91.4176 14.192V13.184C92.4416 13.28 93.4336 13.328 94.3936 13.328C95.7376 13.328 96.9856 13.28 98.1376 13.184C99.3216 13.056 100.41 12.88 101.402 12.656Z" fill="#141414"/>
<path d="M118.942 12.512C121.758 12.512 123.966 13.344 125.566 15.008C127.166 16.672 127.966 19.392 127.966 23.168H112.174L112.078 22.256H121.918C121.95 20.688 121.854 19.248 121.63 17.936C121.406 16.592 121.054 15.52 120.574 14.72C120.094 13.92 119.454 13.52 118.654 13.52C117.534 13.52 116.574 14.224 115.774 15.632C115.006 17.04 114.542 19.376 114.382 22.64L114.526 22.928C114.494 23.312 114.462 23.712 114.43 24.128C114.43 24.544 114.43 24.976 114.43 25.424C114.43 27.632 114.734 29.424 115.342 30.8C115.982 32.176 116.782 33.184 117.742 33.824C118.702 34.432 119.678 34.736 120.67 34.736C121.342 34.736 122.03 34.64 122.734 34.448C123.47 34.224 124.206 33.84 124.942 33.296C125.678 32.72 126.366 31.92 127.006 30.896L127.87 31.184C127.486 32.4 126.878 33.584 126.046 34.736C125.214 35.888 124.158 36.832 122.878 37.568C121.598 38.304 120.062 38.672 118.27 38.672C116.094 38.672 114.174 38.208 112.51 37.28C110.846 36.352 109.534 34.944 108.574 33.056C107.646 31.168 107.182 28.768 107.182 25.856C107.182 22.88 107.678 20.4 108.67 18.416C109.694 16.432 111.086 14.96 112.846 14C114.638 13.008 116.67 12.512 118.942 12.512Z" fill="#141414"/>
<path d="M140.538 0.416016V33.536C140.538 34.88 140.762 35.792 141.21 36.272C141.69 36.752 142.49 36.992 143.61 36.992V38C143.002 37.968 142.09 37.936 140.874 37.904C139.658 37.84 138.426 37.808 137.178 37.808C135.93 37.808 134.666 37.84 133.386 37.904C132.138 37.936 131.194 37.968 130.554 38V36.992C131.674 36.992 132.458 36.752 132.906 36.272C133.386 35.792 133.626 34.88 133.626 33.536V6.17602C133.626 4.73602 133.402 3.68002 132.954 3.00802C132.538 2.30402 131.738 1.95202 130.554 1.95202V0.944017C131.578 1.04002 132.57 1.08802 133.53 1.08802C134.842 1.08802 136.09 1.04002 137.274 0.944017C138.458 0.816017 139.546 0.640017 140.538 0.416016Z" fill="#141414"/>
<path d="M198.615 4.01602V4.97602C197.591 5.00802 196.823 5.13602 196.311 5.36002C195.799 5.55202 195.447 5.93602 195.255 6.51202C195.095 7.05602 195.015 7.92002 195.015 9.10402V32.912C195.015 34.064 195.095 34.928 195.255 35.504C195.447 36.08 195.799 36.464 196.311 36.656C196.823 36.848 197.591 36.976 198.615 37.04V38C197.719 37.936 196.583 37.904 195.207 37.904C193.863 37.872 192.487 37.856 191.079 37.856C189.543 37.856 188.103 37.872 186.759 37.904C185.415 37.904 184.327 37.936 183.495 38V37.04C184.583 36.976 185.399 36.848 185.943 36.656C186.519 36.464 186.903 36.08 187.095 35.504C187.287 34.928 187.383 34.064 187.383 32.912V6.94402H187.719L175.815 38.048H175.047L162.087 7.13602V30.128C162.087 31.888 162.183 33.248 162.375 34.208C162.567 35.136 162.983 35.808 163.623 36.224C164.295 36.608 165.335 36.88 166.743 37.04V38C166.135 37.936 165.335 37.904 164.343 37.904C163.351 37.872 162.423 37.856 161.559 37.856C160.823 37.856 160.071 37.872 159.303 37.904C158.535 37.904 157.895 37.936 157.383 38V37.04C158.407 36.88 159.175 36.608 159.687 36.224C160.199 35.84 160.535 35.216 160.695 34.352C160.887 33.456 160.983 32.24 160.983 30.704V9.10402C160.983 7.92002 160.887 7.05602 160.695 6.51202C160.535 5.93602 160.183 5.55202 159.639 5.36002C159.127 5.13602 158.375 5.00802 157.383 4.97602V4.01602C157.895 4.04802 158.535 4.08002 159.303 4.11202C160.071 4.14402 160.823 4.16002 161.559 4.16002C162.935 4.16002 164.279 4.14402 165.591 4.11202C166.935 4.08002 168.119 4.04802 169.143 4.01602L179.223 28.352L178.023 29.456L187.671 4.16002C188.215 4.16002 188.775 4.16002 189.351 4.16002C189.927 4.16002 190.503 4.16002 191.079 4.16002C192.487 4.16002 193.863 4.14402 195.207 4.11202C196.583 4.08002 197.719 4.04802 198.615 4.01602Z" fill="#141414"/>
<path d="M207.682 38.336C206.242 38.336 205.042 38.064 204.082 37.52C203.122 36.976 202.418 36.256 201.97 35.36C201.522 34.432 201.298 33.424 201.298 32.336C201.298 30.96 201.602 29.84 202.21 28.976C202.85 28.112 203.666 27.408 204.658 26.864C205.65 26.32 206.69 25.872 207.778 25.52C208.898 25.168 209.954 24.832 210.946 24.512C211.97 24.16 212.786 23.76 213.394 23.312C214.034 22.832 214.354 22.224 214.354 21.488V17.744C214.354 16.912 214.21 16.176 213.922 15.536C213.666 14.864 213.25 14.352 212.674 14C212.13 13.648 211.41 13.472 210.514 13.472C209.874 13.472 209.234 13.568 208.594 13.76C207.954 13.92 207.426 14.208 207.01 14.624C207.906 14.944 208.594 15.44 209.074 16.112C209.586 16.752 209.842 17.488 209.842 18.32C209.842 19.408 209.458 20.272 208.69 20.912C207.954 21.552 207.074 21.872 206.05 21.872C204.898 21.872 204.018 21.52 203.41 20.816C202.834 20.08 202.546 19.2 202.546 18.176C202.546 17.248 202.77 16.48 203.218 15.872C203.698 15.264 204.354 14.688 205.186 14.144C206.082 13.632 207.154 13.232 208.402 12.944C209.682 12.656 211.058 12.512 212.53 12.512C214.002 12.512 215.33 12.672 216.514 12.992C217.698 13.28 218.69 13.824 219.49 14.624C220.226 15.36 220.706 16.272 220.93 17.36C221.154 18.416 221.266 19.76 221.266 21.392V34.448C221.266 35.248 221.346 35.808 221.506 36.128C221.666 36.416 221.938 36.56 222.322 36.56C222.61 36.56 222.882 36.48 223.138 36.32C223.426 36.16 223.73 35.968 224.05 35.744L224.53 36.56C223.858 37.136 223.074 37.584 222.178 37.904C221.314 38.192 220.338 38.336 219.25 38.336C218.066 38.336 217.122 38.176 216.418 37.856C215.714 37.504 215.202 37.04 214.882 36.464C214.594 35.888 214.45 35.216 214.45 34.448C213.682 35.664 212.754 36.624 211.666 37.328C210.578 38 209.25 38.336 207.682 38.336ZM211.09 35.264C211.73 35.264 212.306 35.12 212.818 34.832C213.362 34.512 213.874 34 214.354 33.296V23.456C214.066 23.936 213.666 24.368 213.154 24.752C212.642 25.136 212.098 25.536 211.522 25.952C210.946 26.336 210.386 26.768 209.842 27.248C209.33 27.728 208.914 28.32 208.594 29.024C208.274 29.728 208.114 30.576 208.114 31.568C208.114 32.816 208.386 33.744 208.93 34.352C209.474 34.96 210.194 35.264 211.09 35.264Z" fill="#141414"/>
<path d="M242.414 12.512C243.438 12.512 244.27 12.736 244.91 13.184C245.55 13.6 246.014 14.144 246.302 14.816C246.622 15.488 246.782 16.192 246.782 16.928C246.782 18.112 246.43 19.088 245.726 19.856C245.054 20.592 244.158 20.96 243.038 20.96C241.918 20.96 241.038 20.688 240.398 20.144C239.79 19.568 239.486 18.816 239.486 17.888C239.486 16.992 239.678 16.256 240.062 15.68C240.478 15.072 240.99 14.56 241.598 14.144C241.15 14.016 240.702 14.032 240.254 14.192C239.646 14.288 239.07 14.544 238.526 14.96C237.982 15.344 237.518 15.84 237.134 16.448C236.75 17.024 236.446 17.664 236.222 18.368C235.998 19.04 235.886 19.696 235.886 20.336V33.056C235.886 34.592 236.254 35.632 236.99 36.176C237.758 36.72 238.894 36.992 240.398 36.992V38C239.662 37.968 238.59 37.936 237.182 37.904C235.774 37.84 234.302 37.808 232.766 37.808C231.486 37.808 230.19 37.84 228.878 37.904C227.566 37.936 226.574 37.968 225.902 38V36.992C227.022 36.992 227.806 36.752 228.254 36.272C228.734 35.792 228.974 34.88 228.974 33.536V18.416C228.974 16.976 228.75 15.92 228.302 15.248C227.886 14.544 227.086 14.192 225.902 14.192V13.184C226.926 13.28 227.918 13.328 228.878 13.328C230.222 13.328 231.47 13.28 232.622 13.184C233.806 13.056 234.894 12.88 235.886 12.656V17.12C236.27 16.256 236.782 15.472 237.422 14.768C238.062 14.064 238.798 13.52 239.63 13.136C240.462 12.72 241.39 12.512 242.414 12.512Z" fill="#141414"/>
<path d="M254.548 0.800016C255.892 0.800016 256.948 1.13602 257.716 1.80802C258.516 2.44802 258.916 3.34402 258.916 4.49602C258.916 5.64802 258.516 6.56002 257.716 7.23202C256.948 7.87202 255.892 8.19202 254.548 8.19202C253.204 8.19202 252.132 7.87202 251.332 7.23202C250.564 6.56002 250.18 5.64802 250.18 4.49602C250.18 3.34402 250.564 2.44802 251.332 1.80802C252.132 1.13602 253.204 0.800016 254.548 0.800016ZM258.292 12.656V33.536C258.292 34.88 258.516 35.792 258.964 36.272C259.444 36.752 260.244 36.992 261.364 36.992V38C260.788 37.968 259.892 37.936 258.676 37.904C257.46 37.84 256.228 37.808 254.98 37.808C253.732 37.808 252.468 37.84 251.188 37.904C249.908 37.936 248.948 37.968 248.308 38V36.992C249.428 36.992 250.212 36.752 250.66 36.272C251.14 35.792 251.38 34.88 251.38 33.536V18.416C251.38 16.976 251.156 15.92 250.708 15.248C250.292 14.544 249.492 14.192 248.308 14.192V13.184C249.332 13.28 250.324 13.328 251.284 13.328C252.628 13.328 253.876 13.28 255.028 13.184C256.212 13.056 257.3 12.88 258.292 12.656Z" fill="#141414"/>
<path d="M270.073 38.336C268.633 38.336 267.433 38.064 266.473 37.52C265.513 36.976 264.809 36.256 264.361 35.36C263.913 34.432 263.689 33.424 263.689 32.336C263.689 30.96 263.993 29.84 264.601 28.976C265.241 28.112 266.057 27.408 267.049 26.864C268.041 26.32 269.081 25.872 270.169 25.52C271.289 25.168 272.345 24.832 273.337 24.512C274.361 24.16 275.177 23.76 275.785 23.312C276.425 22.832 276.745 22.224 276.745 21.488V17.744C276.745 16.912 276.601 16.176 276.313 15.536C276.057 14.864 275.641 14.352 275.065 14C274.521 13.648 273.801 13.472 272.905 13.472C272.265 13.472 271.625 13.568 270.985 13.76C270.345 13.92 269.817 14.208 269.401 14.624C270.297 14.944 270.985 15.44 271.465 16.112C271.977 16.752 272.233 17.488 272.233 18.32C272.233 19.408 271.849 20.272 271.081 20.912C270.345 21.552 269.465 21.872 268.441 21.872C267.289 21.872 266.409 21.52 265.801 20.816C265.225 20.08 264.937 19.2 264.937 18.176C264.937 17.248 265.161 16.48 265.609 15.872C266.089 15.264 266.745 14.688 267.577 14.144C268.473 13.632 269.545 13.232 270.793 12.944C272.073 12.656 273.449 12.512 274.921 12.512C276.393 12.512 277.721 12.672 278.905 12.992C280.089 13.28 281.081 13.824 281.881 14.624C282.617 15.36 283.097 16.272 283.321 17.36C283.545 18.416 283.657 19.76 283.657 21.392V34.448C283.657 35.248 283.737 35.808 283.897 36.128C284.057 36.416 284.329 36.56 284.713 36.56C285.001 36.56 285.273 36.48 285.529 36.32C285.817 36.16 286.121 35.968 286.441 35.744L286.921 36.56C286.249 37.136 285.465 37.584 284.569 37.904C283.705 38.192 282.729 38.336 281.641 38.336C280.457 38.336 279.513 38.176 278.809 37.856C278.105 37.504 277.593 37.04 277.273 36.464C276.985 35.888 276.841 35.216 276.841 34.448C276.073 35.664 275.145 36.624 274.057 37.328C272.969 38 271.641 38.336 270.073 38.336ZM273.481 35.264C274.121 35.264 274.697 35.12 275.209 34.832C275.753 34.512 276.265 34 276.745 33.296V23.456C276.457 23.936 276.057 24.368 275.545 24.752C275.033 25.136 274.489 25.536 273.913 25.952C273.337 26.336 272.777 26.768 272.233 27.248C271.721 27.728 271.305 28.32 270.985 29.024C270.665 29.728 270.505 30.576 270.505 31.568C270.505 32.816 270.777 33.744 271.321 34.352C271.865 34.96 272.585 35.264 273.481 35.264Z" fill="#141414"/>
<path d="M306.149 12.512C307.493 12.512 308.581 12.688 309.413 13.04C310.277 13.36 310.949 13.808 311.429 14.384C311.941 14.992 312.309 15.776 312.533 16.736C312.789 17.696 312.917 18.992 312.917 20.624V33.536C312.917 34.88 313.141 35.792 313.589 36.272C314.069 36.752 314.869 36.992 315.989 36.992V38C315.381 37.968 314.469 37.936 313.253 37.904C312.037 37.84 310.837 37.808 309.653 37.808C308.437 37.808 307.237 37.84 306.053 37.904C304.901 37.936 304.021 37.968 303.413 38V36.992C304.373 36.992 305.045 36.752 305.429 36.272C305.813 35.792 306.005 34.88 306.005 33.536V18.608C306.005 17.808 305.925 17.12 305.765 16.544C305.605 15.936 305.317 15.472 304.901 15.152C304.485 14.8 303.861 14.624 303.029 14.624C302.165 14.624 301.365 14.864 300.629 15.344C299.925 15.824 299.349 16.496 298.901 17.36C298.485 18.192 298.277 19.136 298.277 20.192V33.536C298.277 34.88 298.469 35.792 298.853 36.272C299.269 36.752 299.941 36.992 300.869 36.992V38C300.293 37.968 299.445 37.936 298.325 37.904C297.237 37.84 296.101 37.808 294.917 37.808C293.701 37.808 292.453 37.84 291.173 37.904C289.893 37.936 288.933 37.968 288.293 38V36.992C289.413 36.992 290.197 36.752 290.645 36.272C291.125 35.792 291.365 34.88 291.365 33.536V18.416C291.365 16.976 291.141 15.92 290.693 15.248C290.277 14.544 289.477 14.192 288.293 14.192V13.184C289.317 13.28 290.309 13.328 291.269 13.328C292.613 13.328 293.861 13.28 295.013 13.184C296.197 13.056 297.285 12.88 298.277 12.656V16.976C299.077 15.344 300.165 14.192 301.541 13.52C302.917 12.848 304.453 12.512 306.149 12.512Z" fill="#141414"/>
<path d="M330.161 12.512C332.497 12.512 334.545 12.944 336.305 13.808C338.065 14.672 339.441 16.064 340.433 17.984C341.425 19.904 341.921 22.448 341.921 25.616C341.921 28.784 341.425 31.328 340.433 33.248C339.441 35.136 338.065 36.512 336.305 37.376C334.545 38.24 332.497 38.672 330.161 38.672C327.889 38.672 325.857 38.24 324.065 37.376C322.305 36.512 320.913 35.136 319.889 33.248C318.897 31.328 318.401 28.784 318.401 25.616C318.401 22.448 318.897 19.904 319.889 17.984C320.913 16.064 322.305 14.672 324.065 13.808C325.857 12.944 327.889 12.512 330.161 12.512ZM330.161 13.472C328.881 13.472 327.809 14.432 326.945 16.352C326.081 18.24 325.649 21.328 325.649 25.616C325.649 29.904 326.081 32.992 326.945 34.88C327.809 36.768 328.881 37.712 330.161 37.712C331.473 37.712 332.545 36.768 333.377 34.88C334.241 32.992 334.673 29.904 334.673 25.616C334.673 21.328 334.241 18.24 333.377 16.352C332.545 14.432 331.473 13.472 330.161 13.472Z" fill="#141414"/>
</svg>
